<svg xmlns="http://www.w3.org/2000/svg" viewBox="0 0 260 294.1">
  <path d="M134.7,289.6 C113.8,289.6 30.9,289.9 9.5,289.6 C-12.0,289.3 7.0,288.9 6.0,287.8 C5.1,286.7 4.2,289.8 3.9,283.0 C3.7,276.3 3.8,253.9 4.5,247.3 C5.1,240.6 6.8,244.1 7.9,243.3 C9.0,242.5 -6.9,242.4 11.0,242.3 C29.0,242.1 96.1,242.5 115.7,242.3 C135.4,242.0 123.7,241.7 128.9,240.7 C134.1,239.6 141.8,237.7 146.8,235.9 C151.8,234.2 155.1,232.3 158.9,230.2 C162.6,228.1 165.1,226.9 169.4,223.3 C173.7,219.8 181.0,213.0 184.9,208.9 C188.8,204.7 190.4,202.0 192.8,198.3 C195.2,194.7 197.3,190.8 199.1,186.8 C201.0,182.7 202.5,179.5 203.9,174.1 C205.3,168.8 206.9,160.5 207.5,154.7 C208.2,148.9 207.8,143.9 207.5,139.4 C207.3,134.9 207.1,132.7 206.0,127.8 C204.8,123.0 203.0,116.0 200.7,110.5 C198.4,105.0 196.2,100.3 192.3,94.7 C188.4,89.1 182.5,82.0 177.3,77.1 C172.1,72.1 167.0,68.5 161.0,65.0 C154.9,61.5 147.6,58.1 141.0,56.0 C134.4,53.9 141.7,53.0 121.5,52.3 C101.4,51.7 38.4,52.4 20.0,52.3 C1.6,52.3 13.2,52.2 11.0,51.8 C8.9,51.5 8.5,51.4 7.4,50.2 C6.2,49.1 4.5,51.2 3.9,44.7 C3.4,38.3 3.6,17.9 3.9,11.6 C4.3,5.3 5.1,8.0 6.0,6.8 C7.0,5.7 -10.4,5.0 9.5,4.5 C29.3,4.0 103.3,3.7 125.2,3.9 C147.1,4.2 135.2,4.9 141.0,6.0 C146.8,7.2 152.1,7.8 159.9,10.8 C167.7,13.8 181.0,20.3 187.8,23.9 C194.7,27.6 196.8,29.7 201.0,32.9 C205.1,36.0 207.6,37.7 212.5,42.9 C217.5,48.1 225.3,56.3 230.7,64.2 C236.1,72.0 241.5,82.6 244.9,90.0 C248.3,97.3 249.5,102.1 251.2,108.4 C252.9,114.6 254.2,118.5 254.9,127.3 C255.6,136.1 255.7,152.6 255.4,161.0 C255.2,169.4 254.1,173.3 253.3,177.8 C252.5,182.4 252.0,184.0 250.7,188.3 C249.4,192.6 247.3,198.9 245.4,203.6 C243.5,208.3 241.6,212.3 239.1,216.7 C236.7,221.2 233.7,226.1 230.7,230.4 C227.7,234.7 225.1,238.2 221.2,242.5 C217.3,246.9 211.6,252.6 207.3,256.5 C202.9,260.4 199.8,262.8 195.2,265.9 C190.5,269.1 184.4,272.8 179.4,275.4 C174.4,278.0 170.0,279.9 165.2,281.7 C160.4,283.6 155.5,285.1 150.5,286.5 C145.4,287.8 137.3,289.1 134.7,289.6 Z M88.4,228.6 C87.6,228.4 85.1,228.8 83.6,227.5 C82.2,226.3 82.2,229.0 79.7,221.0 C77.2,212.9 71.0,187.6 68.7,179.4 C66.3,171.2 66.6,173.4 65.5,171.5 C64.4,169.6 63.8,169.2 62.1,168.1 C60.4,167.0 64.0,167.5 55.2,164.9 C46.5,162.4 17.9,155.6 9.5,152.8 C1.0,150.1 5.2,149.7 4.5,148.4 C3.7,147.0 4.3,145.8 5.0,144.7 C5.7,143.6 -0.5,144.5 8.4,141.8 C17.3,139.0 48.9,131.3 58.4,128.1 C67.9,124.9 63.8,124.8 65.5,122.6 C67.2,120.3 66.3,123.1 68.7,114.7 C71.0,106.3 77.5,79.8 79.7,72.1 C81.9,64.4 80.9,69.4 81.8,68.4 C82.7,67.4 84.1,66.3 85.2,66.0 C86.3,65.7 87.2,65.6 88.4,66.5 C89.6,67.5 89.6,62.8 92.3,71.5 C95.1,80.3 101.8,109.7 105.0,118.9 C108.1,128.1 109.0,124.8 111.0,126.5 C113.0,128.2 108.4,126.7 116.8,129.2 C125.2,131.6 152.8,138.3 161.5,141.3 C170.2,144.2 168.3,145.3 169.1,146.8 C170.0,148.3 168.1,149.1 166.8,150.2 C165.4,151.3 169.5,150.8 161.0,153.4 C152.5,155.9 124.2,163.0 115.7,165.5 C107.2,167.9 111.5,167.1 110.0,168.1 C108.4,169.1 109.5,162.3 106.5,171.5 C103.6,180.7 95.4,213.5 92.3,223.1 C89.3,232.6 89.0,227.7 88.4,228.6 Z" fill="white" fill-rule="evenodd"/>
</svg>
