<?xml version="1.0" encoding="UTF-8"?>
<svg xmlns="http://www.w3.org/2000/svg" viewBox="0 0 1200 294.1">
  <path d="M134.7,289.6 C113.8,289.6 30.9,289.9 9.5,289.6 C-12.0,289.3 7.0,288.9 6.0,287.8 C5.1,286.7 4.2,289.8 3.9,283.0 C3.7,276.3 3.8,253.9 4.5,247.3 C5.1,240.6 6.8,244.1 7.9,243.3 C9.0,242.5 -6.9,242.4 11.0,242.3 C29.0,242.1 96.1,242.5 115.7,242.3 C135.4,242.0 123.7,241.7 128.9,240.7 C134.1,239.6 141.8,237.7 146.8,235.9 C151.8,234.2 155.1,232.3 158.9,230.2 C162.6,228.1 165.1,226.9 169.4,223.3 C173.7,219.8 181.0,213.0 184.9,208.9 C188.8,204.7 190.4,202.0 192.8,198.3 C195.2,194.7 197.3,190.8 199.1,186.8 C201.0,182.7 202.5,179.5 203.9,174.1 C205.3,168.8 206.9,160.5 207.5,154.7 C208.2,148.9 207.8,143.9 207.5,139.4 C207.3,134.9 207.1,132.7 206.0,127.8 C204.8,123.0 203.0,116.0 200.7,110.5 C198.4,105.0 196.2,100.3 192.3,94.7 C188.4,89.1 182.5,82.0 177.3,77.1 C172.1,72.1 167.0,68.5 161.0,65.0 C154.9,61.5 147.6,58.1 141.0,56.0 C134.4,53.9 141.7,53.0 121.5,52.3 C101.4,51.7 38.4,52.4 20.0,52.3 C1.6,52.3 13.2,52.2 11.0,51.8 C8.9,51.5 8.5,51.4 7.4,50.2 C6.2,49.1 4.5,51.2 3.9,44.7 C3.4,38.3 3.6,17.9 3.9,11.6 C4.3,5.3 5.1,8.0 6.0,6.8 C7.0,5.7 -10.4,5.0 9.5,4.5 C29.3,4.0 103.3,3.7 125.2,3.9 C147.1,4.2 135.2,4.9 141.0,6.0 C146.8,7.2 152.1,7.8 159.9,10.8 C167.7,13.8 181.0,20.3 187.8,23.9 C194.7,27.6 196.8,29.7 201.0,32.9 C205.1,36.0 207.6,37.7 212.5,42.9 C217.5,48.1 225.3,56.3 230.7,64.2 C236.1,72.0 241.5,82.6 244.9,90.0 C248.3,97.3 249.5,102.1 251.2,108.4 C252.9,114.6 254.2,118.5 254.9,127.3 C255.6,136.1 255.7,152.6 255.4,161.0 C255.2,169.4 254.1,173.3 253.3,177.8 C252.5,182.4 252.0,184.0 250.7,188.3 C249.4,192.6 247.3,198.9 245.4,203.6 C243.5,208.3 241.6,212.3 239.1,216.7 C236.7,221.2 233.7,226.1 230.7,230.4 C227.7,234.7 225.1,238.2 221.2,242.5 C217.3,246.9 211.6,252.6 207.3,256.5 C202.9,260.4 199.8,262.8 195.2,265.9 C190.5,269.1 184.4,272.8 179.4,275.4 C174.4,278.0 170.0,279.9 165.2,281.7 C160.4,283.6 155.5,285.1 150.5,286.5 C145.4,287.8 137.3,289.1 134.7,289.6 Z M458.2,289.6 C456.3,289.3 450.7,289.3 446.6,288.0 C442.6,286.8 437.9,285.1 434.0,282.2 C430.1,279.4 425.9,274.6 423.2,270.9 C420.6,267.3 419.8,262.8 418.0,260.4 C416.2,258.0 414.2,257.1 412.5,256.5 C410.7,255.8 409.1,256.2 407.7,256.5 C406.3,256.7 409.4,254.6 404.0,258.0 C398.7,261.5 383.7,272.2 375.6,277.0 C367.6,281.8 360.5,284.9 355.6,287.0 C350.8,289.1 350.7,289.2 346.7,289.6 C342.7,290.0 335.6,290.0 331.4,289.6 C327.2,289.3 326.1,289.1 321.4,287.5 C316.8,285.9 308.5,282.9 303.6,280.1 C298.6,277.4 295.4,274.7 291.5,271.2 C287.5,267.6 283.6,263.8 280.1,258.8 C276.7,253.9 273.0,247.7 270.7,241.5 C268.3,235.2 266.5,228.5 265.9,221.5 C265.3,214.5 266.2,204.9 267.0,199.4 C267.8,193.9 269.4,191.5 270.7,188.3 C272.0,185.2 272.3,183.8 274.9,180.4 C277.5,177.1 282.6,171.4 286.2,168.1 C289.8,164.8 292.8,163.0 296.7,160.7 C300.7,158.4 299.1,158.4 309.9,154.4 C320.6,150.4 347.0,141.9 361.4,136.5 C375.8,131.2 388.3,125.8 396.1,122.3 C404.0,118.8 406.0,117.4 408.8,115.5 C411.5,113.6 412.0,115.0 412.7,111.0 C413.5,107.0 413.3,96.4 413.2,91.5 C413.2,86.6 412.8,85.1 412.2,81.5 C411.6,78.0 410.8,74.3 409.6,70.5 C408.3,66.7 406.6,62.3 404.8,58.9 C403.1,55.5 401.7,53.1 399.0,50.0 C396.4,46.9 392.3,42.8 388.8,40.2 C385.2,37.7 381.3,35.9 377.7,34.5 C374.1,33.1 371.3,32.3 367.2,31.8 C363.1,31.4 356.3,31.6 353.0,31.8 C349.7,32.1 349.5,32.4 347.2,33.4 C344.9,34.4 342.0,35.6 339.3,37.6 C336.7,39.6 334.0,41.3 331.2,45.2 C328.3,49.2 325.2,54.3 322.2,61.6 C319.2,68.8 316.0,82.9 313.3,88.9 C310.6,94.9 308.2,95.8 306.2,97.6 C304.1,99.4 303.8,99.5 300.9,99.7 C298.0,99.9 292.3,99.7 288.8,98.6 C285.3,97.6 282.7,95.8 279.9,93.4 C277.0,91.0 273.6,87.4 271.7,84.2 C269.8,81.0 269.0,76.7 268.6,74.2 C268.1,71.6 268.2,71.2 269.1,68.9 C270.0,66.6 271.9,63.0 273.8,60.5 C275.7,58.0 274.7,58.3 280.4,53.9 C286.1,49.6 301.5,38.9 308.3,34.5 C315.0,30.0 315.6,30.0 320.9,27.1 C326.3,24.2 334.2,20.0 340.4,17.1 C346.6,14.2 353.0,11.7 358.3,9.7 C363.5,7.8 367.6,6.4 371.9,5.5 C376.3,4.6 380.4,4.4 384.6,4.5 C388.7,4.6 391.4,4.7 396.7,6.0 C401.9,7.4 410.5,9.8 416.1,12.4 C421.7,14.9 425.9,17.8 430.3,21.3 C434.8,24.9 439.1,29.4 442.7,33.7 C446.3,37.9 449.4,42.9 451.6,46.8 C453.9,50.8 454.8,52.1 456.4,57.3 C458.0,62.6 460.3,52.9 461.1,78.4 C461.9,103.9 460.8,185.2 461.1,210.4 C461.5,235.7 462.0,224.8 463.2,229.9 C464.4,235.0 466.2,238.1 468.5,240.9 C470.7,243.8 473.3,245.9 476.6,247.0 C480.0,248.1 484.6,247.9 488.7,247.5 C492.9,247.2 498.6,245.0 501.4,244.9 C504.2,244.8 504.3,245.8 505.6,247.0 C506.8,248.2 508.4,250.3 509.0,252.0 C509.6,253.7 509.6,255.5 509.0,257.3 C508.3,259.1 513.5,257.4 505.0,262.8 C496.6,268.2 466.0,285.1 458.2,289.6 Z M545.6,124.9 C542.2,123.2 530.9,118.0 525.6,114.4 C520.3,110.9 516.7,106.9 513.7,103.6 C510.7,100.4 509.6,99.1 507.4,94.7 C505.2,90.3 501.9,83.1 500.6,77.3 C499.3,71.5 499.0,65.8 499.5,60.0 C500.0,54.2 501.4,48.3 503.7,42.6 C506.1,36.9 510.5,30.0 513.7,25.8 C516.9,21.5 519.7,19.6 522.9,17.1 C526.1,14.6 529.3,12.5 532.9,10.8 C536.5,9.0 540.9,7.5 544.5,6.6 C548.1,5.6 549.8,5.1 554.5,5.0 C559.1,4.9 566.6,4.8 572.4,6.0 C578.2,7.3 578.3,6.7 589.2,12.4 C600.1,18.1 627.4,34.2 637.6,40.2 C647.8,46.3 652.0,48.0 650.5,48.9 C649.0,49.8 636.5,45.7 628.7,45.5 C620.8,45.3 611.5,46.0 603.4,47.6 C595.4,49.2 587.3,52.0 580.3,55.0 C573.3,58.0 567.1,61.5 561.3,65.5 C555.6,69.5 549.4,75.4 545.8,78.9 C542.3,82.5 541.6,84.2 540.0,86.8 C538.4,89.4 537.1,92.5 536.3,94.7 C535.6,96.9 535.3,97.3 535.3,100.0 C535.3,102.6 535.7,107.8 536.3,110.5 C537.0,113.2 537.4,113.9 539.0,116.3 C540.5,118.7 544.5,123.5 545.6,124.9 Z M1125.8,289.1 C1125.3,289.1 1124.8,290.0 1122.7,289.1 C1120.6,288.2 1123.2,290.1 1113.2,283.8 C1103.2,277.6 1070.7,257.6 1062.4,251.5 C1054.1,245.4 1058.0,254.4 1063.5,247.3 C1068.9,240.2 1088.7,216.8 1095.0,208.9 C1101.4,200.9 1100.4,224.0 1101.4,199.4 C1102.3,174.7 1101.3,84.4 1100.8,61.0 C1100.4,37.7 1100.1,59.8 1098.5,59.2 C1096.8,58.6 1093.6,57.9 1091.1,57.6 C1088.6,57.3 1086.1,57.3 1083.7,57.6 C1081.4,58.0 1080.0,58.0 1076.9,59.7 C1073.8,61.4 1069.2,64.1 1065.3,67.6 C1061.5,71.1 1056.1,78.6 1053.7,80.8 C1051.4,82.9 1051.7,81.0 1051.1,80.8 C1050.5,80.5 1050.4,80.0 1050.3,79.4 C1050.3,78.9 1048.0,80.7 1050.9,77.3 C1053.7,74.0 1055.8,71.5 1067.7,59.4 C1079.6,47.4 1112.0,13.6 1122.1,5.0 C1132.3,-3.6 1118.9,1.9 1128.5,7.6 C1138.0,13.3 1170.3,33.5 1179.5,39.2 C1188.6,44.9 1182.6,41.2 1183.4,42.1 C1184.3,43.0 1188.4,38.9 1184.5,44.7 C1180.5,50.5 1164.0,57.7 1159.8,76.8 C1155.5,95.9 1159.8,144.9 1159.2,159.4 C1158.7,173.9 1163.2,156.2 1156.6,163.6 C1150.0,171.1 1126.4,196.4 1119.8,204.1 C1113.1,211.8 1116.5,208.3 1116.6,209.9 C1116.7,211.5 1113.5,209.4 1120.6,213.9 C1127.6,218.3 1151.3,232.8 1159.0,236.5 C1166.6,240.2 1164.0,236.6 1166.3,235.9 C1168.7,235.3 1170.9,234.1 1173.2,232.8 C1175.4,231.5 1176.8,231.1 1180.0,228.1 C1183.3,225.0 1190.2,216.7 1192.6,214.4 C1195.1,212.1 1194.3,214.2 1194.7,214.4 C1195.2,214.6 1195.7,214.7 1195.5,215.7 C1195.3,216.7 1205.0,208.2 1193.4,220.4 C1181.8,232.7 1137.1,277.6 1125.8,289.1 Z M1003.8,287.0 C1001.8,286.8 1023.9,286.1 991.7,285.9 C959.4,285.8 840.7,286.1 810.2,285.9 C779.6,285.7 808.7,292.5 808.3,284.6 C807.9,276.7 807.5,246.8 807.8,238.3 C808.1,229.8 778.0,266.1 809.9,233.6 C841.8,201.1 967.7,75.1 999.3,43.1 C1030.9,11.1 999.7,42.0 999.3,41.6 C998.9,41.1 1006.9,40.3 996.9,40.2 C987.0,40.2 950.9,39.7 939.6,41.3 C928.3,42.9 942.2,37.0 929.1,49.7 C915.9,62.4 873.0,105.9 860.7,117.6 C848.4,129.2 858.3,119.2 855.4,119.7 C852.5,120.1 850.8,120.2 843.3,120.2 C835.9,120.2 816.5,120.5 810.7,119.7 C804.9,118.9 808.7,130.0 808.3,115.2 C807.9,100.4 808.2,48.5 808.3,31.0 C808.4,13.6 808.5,14.2 808.9,10.5 C809.3,6.8 774.0,9.0 810.7,8.7 C847.4,8.4 992.3,8.5 1029.0,8.7 C1065.7,8.9 1030.5,2.5 1030.9,10.0 C1031.3,17.5 1031.7,45.2 1031.4,53.7 C1031.0,62.1 1053.5,34.9 1028.8,60.5 C1004.0,86.1 912.2,177.6 882.8,207.0 C853.4,236.4 858.9,231.0 852.3,237.0 C845.6,243.0 844.8,241.3 842.8,242.8 C840.8,244.2 840.6,244.7 840.4,245.7 C840.3,246.7 840.8,247.5 842.0,248.8 C843.2,250.2 838.0,253.1 847.5,253.8 C857.0,254.6 889.1,254.3 899.1,253.3 C909.1,252.3 894.1,260.7 907.5,248.0 C920.9,235.4 966.7,189.6 979.6,177.6 C992.5,165.5 976.7,176.2 984.8,176.0 C993.0,175.7 1020.9,175.6 1028.5,176.0 C1036.1,176.4 1030.0,160.4 1030.3,178.3 C1030.6,196.3 1030.7,265.6 1030.3,283.6 C1029.9,301.5 1031.8,285.5 1028.0,285.9 C1024.2,286.3 1011.5,285.8 1007.5,285.9 C1003.4,286.1 1004.4,286.8 1003.8,287.0 Z M766.5,116.5 C752.3,108.5 696.7,77.1 681.3,68.1 C665.9,59.1 672.0,62.7 674.2,62.6 C676.4,62.5 688.5,66.8 694.4,67.6 C700.4,68.4 704.9,68.1 709.7,67.6 C714.5,67.1 719.2,65.8 723.4,64.4 C727.6,63.0 731.3,61.3 734.9,59.2 C738.5,57.1 741.4,55.2 744.9,51.8 C748.5,48.4 753.2,43.4 756.2,38.9 C759.3,34.5 761.3,29.8 763.1,25.3 C764.9,20.7 766.2,13.5 767.0,11.8 C767.9,10.2 768.1,-1.9 768.3,15.3 C768.6,32.4 768.7,97.8 768.3,114.7 C768.0,131.6 766.8,116.2 766.5,116.5 Z M843.6,86.3 C850.9,79.3 880.3,51.5 887.8,44.2 C895.2,36.9 888.4,43.1 888.3,42.6 C888.2,42.1 894.4,41.5 887.0,41.3 C879.6,41.1 851.4,41.1 843.8,41.3 C836.3,41.5 842.0,35.2 841.5,42.6 C841.0,50.0 840.6,78.5 840.9,85.8 C841.3,93.0 843.1,86.2 843.6,86.3 Z M88.4,228.6 C87.6,228.4 85.1,228.8 83.6,227.5 C82.2,226.3 82.2,229.0 79.7,221.0 C77.2,212.9 71.0,187.6 68.7,179.4 C66.3,171.2 66.6,173.4 65.5,171.5 C64.4,169.6 63.8,169.2 62.1,168.1 C60.4,167.0 64.0,167.5 55.2,164.9 C46.5,162.4 17.9,155.6 9.5,152.8 C1.0,150.1 5.2,149.7 4.5,148.4 C3.7,147.0 4.3,145.8 5.0,144.7 C5.7,143.6 -0.5,144.5 8.4,141.8 C17.3,139.0 48.9,131.3 58.4,128.1 C67.9,124.9 63.8,124.8 65.5,122.6 C67.2,120.3 66.3,123.1 68.7,114.7 C71.0,106.3 77.5,79.8 79.7,72.1 C81.9,64.4 80.9,69.4 81.8,68.4 C82.7,67.4 84.1,66.3 85.2,66.0 C86.3,65.7 87.2,65.6 88.4,66.5 C89.6,67.5 89.6,62.8 92.3,71.5 C95.1,80.3 101.8,109.7 105.0,118.9 C108.1,128.1 109.0,124.8 111.0,126.5 C113.0,128.2 108.4,126.7 116.8,129.2 C125.2,131.6 152.8,138.3 161.5,141.3 C170.2,144.2 168.3,145.3 169.1,146.8 C170.0,148.3 168.1,149.1 166.8,150.2 C165.4,151.3 169.5,150.8 161.0,153.4 C152.5,155.9 124.2,163.0 115.7,165.5 C107.2,167.9 111.5,167.1 110.0,168.1 C108.4,169.1 109.5,162.3 106.5,171.5 C103.6,180.7 95.4,213.5 92.3,223.1 C89.3,232.6 89.0,227.7 88.4,228.6 Z M645.5,186.0 C645.0,186.0 643.8,186.4 642.3,186.0 C640.9,185.5 651.3,192.1 637.1,183.3 C622.9,174.6 571.7,142.7 557.1,133.4 C542.5,124.0 548.5,127.8 549.5,127.3 C550.5,126.9 558.9,130.0 562.9,130.7 C566.9,131.5 568.8,131.9 573.4,131.8 C578.1,131.7 585.0,131.2 590.8,130.2 C596.6,129.2 603.3,127.4 608.2,126.0 C613.0,124.6 614.3,124.4 619.7,121.8 C625.2,119.2 636.6,112.3 640.8,110.2 C645.0,108.1 629.5,100.3 645.0,109.2 C660.4,118.0 717.6,153.5 733.4,163.3 C749.1,173.2 741.3,168.2 739.4,168.3 C737.5,168.5 728.3,165.0 721.8,164.4 C715.3,163.8 708.2,163.7 700.2,164.9 C692.2,166.2 683.0,168.3 673.9,171.8 C664.8,175.3 650.2,183.6 645.5,186.0 Z M644.2,175.2 C644.5,174.7 645.2,174.7 645.8,172.6 C646.4,170.4 646.6,165.1 647.9,162.0 C649.1,159.0 651.5,156.2 653.4,154.4 C655.3,152.6 656.0,152.3 659.2,151.2 C662.4,150.2 670.8,148.7 672.6,147.8 C674.4,147.0 672.2,146.6 669.7,146.0 C667.2,145.3 660.3,144.7 657.6,143.9 C654.9,143.1 655.0,143.0 653.4,141.3 C651.8,139.5 649.1,136.7 647.9,133.6 C646.6,130.5 646.5,124.8 645.8,122.6 C645.0,120.3 644.1,118.9 643.4,120.2 C642.7,121.5 642.4,127.6 641.6,130.5 C640.7,133.3 639.7,135.4 638.4,137.3 C637.1,139.2 635.6,140.5 633.9,141.8 C632.2,143.1 631.0,144.1 628.1,144.9 C625.3,145.7 619.2,145.9 617.1,146.5 C615.0,147.1 613.8,147.6 615.8,148.4 C617.8,149.1 625.8,150.1 629.2,151.2 C632.6,152.4 634.2,153.8 636.0,155.5 C637.8,157.1 639.0,158.2 640.0,161.0 C641.0,163.7 641.4,169.7 642.1,172.0 C642.8,174.4 643.8,174.7 644.2,175.2 Z M366.4,251.5 C367.4,251.4 369.9,251.7 372.5,251.2 C375.1,250.7 377.9,250.1 381.9,248.6 C386.0,247.1 392.5,244.5 396.7,242.3 C400.9,240.1 404.4,237.8 407.2,235.4 C410.0,233.0 412.1,242.0 413.2,227.8 C414.3,213.5 414.0,164.0 413.8,149.9 C413.5,135.9 412.8,145.2 411.7,143.6 C410.5,142.0 408.3,140.8 406.7,140.2 C405.0,139.6 403.4,139.9 401.9,140.2 C400.4,140.5 406.8,137.7 397.7,141.8 C388.6,145.8 358.1,159.0 347.2,164.4 C336.3,169.8 336.1,171.4 332.5,174.4 C328.8,177.4 327.2,180.0 325.4,182.6 C323.6,185.1 322.7,187.3 321.7,189.9 C320.7,192.5 319.9,194.5 319.6,198.3 C319.2,202.2 319.0,208.5 319.6,213.1 C320.2,217.6 321.8,222.1 323.3,225.7 C324.8,229.3 326.7,232.0 328.5,234.6 C330.4,237.2 331.7,239.0 334.6,241.2 C337.4,243.4 342.2,246.4 345.6,248.0 C349.1,249.7 351.6,250.6 355.1,251.2 C358.6,251.8 364.5,251.4 366.4,251.5 Z M741.3,289.6 C737.0,289.6 721.9,290.1 716.0,289.6 C710.1,289.1 717.4,292.5 706.0,286.5 C694.6,280.4 658.7,259.8 647.6,253.3 C636.5,246.8 637.6,247.8 639.5,247.3 C641.3,246.7 654.1,249.7 658.7,250.2 C663.3,250.6 661.9,250.7 667.1,250.2 C672.2,249.6 682.1,248.9 689.7,247.0 C697.3,245.1 706.3,241.6 712.8,238.6 C719.4,235.5 723.8,232.7 729.2,228.6 C734.5,224.4 741.8,217.1 745.2,213.6 C748.6,210.0 748.1,209.8 749.4,207.3 C750.7,204.7 752.5,202.1 753.1,198.3 C753.7,194.6 753.6,188.0 753.1,184.7 C752.6,181.3 751.3,180.4 749.9,178.3 C748.5,176.3 745.3,173.7 744.7,172.6 C744.0,171.5 742.3,169.9 746.0,171.8 C749.6,173.7 761.0,179.6 766.5,183.9 C772.0,188.1 775.5,192.2 778.9,197.3 C782.2,202.4 785.1,209.9 786.8,214.6 C788.4,219.4 788.5,222.1 788.9,225.7 C789.2,229.3 789.6,231.6 788.9,236.2 C788.2,240.9 786.4,248.8 784.7,253.6 C782.9,258.4 780.2,262.3 778.3,265.1 C776.5,268.0 776.8,268.0 773.6,270.9 C770.4,273.9 763.0,280.1 759.1,282.8 C755.3,285.4 753.7,285.8 750.7,287.0 C747.7,288.1 742.8,289.2 741.3,289.6 Z M521.9,282.8 C521.6,282.4 520.3,297.3 520.0,280.4 C519.7,263.5 519.8,198.3 520.0,181.5 C520.3,164.7 520.7,180.0 521.4,179.7 C522.0,179.4 522.0,178.8 524.0,179.7 C526.0,180.5 520.0,177.2 533.5,184.9 C546.9,192.6 591.1,218.0 604.5,226.0 C617.8,233.9 612.5,231.4 613.7,232.5 C614.8,233.7 614.4,233.5 611.3,232.8 C608.2,232.0 599.9,228.9 595.0,228.1 C590.1,227.2 586.1,227.3 581.9,227.5 C577.6,227.8 574.2,228.2 569.8,229.6 C565.3,231.0 559.4,233.6 555.0,235.9 C550.6,238.3 547.2,240.6 543.4,243.8 C539.7,247.1 535.4,252.0 532.7,255.7 C529.9,259.4 528.7,261.7 526.9,266.2 C525.1,270.7 522.7,280.0 521.9,282.8 Z M996.7,253.0 C996.9,252.7 998.0,258.0 998.2,250.9 C998.5,243.8 998.7,217.3 998.2,210.4 C997.8,203.6 1002.7,203.0 995.4,209.6 C988.0,216.3 960.9,243.3 954.1,250.4 C947.2,257.6 947.0,252.1 954.1,252.5 C961.2,253.0 989.6,253.0 996.7,253.0 Z" fill="white" fill-rule="evenodd"/>
</svg>